# xmcd
# 
# Track frame offsets:
#     150
#     18782
#     41850
#     62733
#     78424
#     97404
#     121837
#     136203
#     150235
#     190707
#     203158
#     228667
# 
# Disc length: 3218
# 
# Revision: 2
# Processed by: cddbd v1.5.2PL0 Copyright (c) Steve Scherf et al.
# Submitted via: fre:ac v1.0.17
# 
DISCID=990c900c
DTITLE=Duke Robillard - Blue Mood CD1
DYEAR=2004
DGENRE=Blues
TTITLE0=Lonesome Woman Blues
TTITLE1=T-Bone Shuffle
TTITLE2=Love Is A Gamble
TTITLE3=Alimony Blues
TTITLE4=You Don't Love Me
TTITLE5=T-Bone Boogie
TTITLE6=Blue Mood
TTITLE7=Pony Tail
TTITLE8=I'm Still In Love With You
TTITLE9=Hard Way
TTITLE10=Born To Be No Good
TTITLE11=Tell Me What's The Reason
EXTD=Bluesfestradio.com
EXTT0=
EXTT1=
EXTT2=
EXTT3=
EXTT4=
EXTT5=
EXTT6=
EXTT7=
EXTT8=
EXTT9=
EXTT10=
EXTT11=
PLAYORDER=
